<svg xmlns="http://www.w3.org/2000/svg" width="23" height="18" viewBox="0 0 23 18">
    <g fill="none" fill-rule="evenodd">
        <path d="M0-3h23v23H0z"/>
        <path fill="#FFF" fill-rule="nonzero" d="M20.163.036H2.808A2.81 2.81 0 0 0 0 2.844v11.861a2.81 2.81 0 0 0 2.808 2.809h17.35a2.81 2.81 0 0 0 2.809-2.809V2.85A2.808 2.808 0 0 0 20.163.036zm1.525 14.67c0 .84-.684 1.525-1.525 1.525H2.808a1.527 1.527 0 0 1-1.525-1.526V2.85c0-.841.684-1.526 1.525-1.526h17.35c.841 0 1.526.685 1.526 1.526v11.856h.004z"/>
        <path fill="#FFF" fill-rule="nonzero" d="M14.484 8.627l5.617-5.037a.645.645 0 0 0 .048-.907.645.645 0 0 0-.908-.048l-7.746 6.952-1.51-1.35c-.006-.004-.01-.009-.01-.014a.95.95 0 0 0-.105-.09L3.72 2.63a.64.64 0 0 0-.907.053.64.64 0 0 0 .052.907L8.55 8.67l-5.66 5.299a.644.644 0 0 0 .88.94l5.745-5.374 1.558 1.392a.641.641 0 0 0 .856-.004l1.601-1.435 5.712 5.426a.64.64 0 0 0 .884-.931l-5.64-5.356z"/>
    </g>
</svg>
