<svg xmlns="http://www.w3.org/2000/svg" width="20" height="20" viewBox="0 0 20 20">
    <g fill="#73777A" fill-rule="nonzero">
        <path d="M10 7.206A2.8 2.8 0 0 0 7.206 10 2.8 2.8 0 0 0 10 12.794 2.8 2.8 0 0 0 12.794 10 2.8 2.8 0 0 0 10 7.206z"/>
        <path d="M16.49.078H3.51A3.435 3.435 0 0 0 .078 3.51V16.5a3.435 3.435 0 0 0 3.432 3.431H16.5a3.435 3.435 0 0 0 3.431-3.431V3.51a3.45 3.45 0 0 0-3.44-3.432zM10 15.735A5.743 5.743 0 0 1 4.265 10a5.736 5.736 0 0 1 11.47 0A5.743 5.743 0 0 1 10 15.735zm7.833-12.147c0 .785-.637 1.422-1.421 1.422a1.423 1.423 0 0 1 0-2.843c.784 0 1.421.637 1.421 1.421z"/>
    </g>
</svg>
