<svg xmlns="http://www.w3.org/2000/svg" width="23" height="23" viewBox="0 0 23 23">
    <path fill="#FFF" fill-rule="nonzero" d="M17.597 22.971c1.184 0 2.137-.409 2.911-1.25l.02-.02c.274-.332.587-.63.914-.948.221-.217.452-.438.669-.664 1.015-1.059 1.01-2.401-.01-3.426l-2.853-2.853c-.486-.506-1.069-.775-1.68-.775-.61 0-1.193.265-1.693.765l-1.699 1.699c-.154-.092-.313-.169-.467-.246-.187-.096-.365-.183-.524-.284-1.55-.981-2.954-2.266-4.297-3.916-.678-.857-1.13-1.579-1.448-2.315.442-.404.861-.823 1.26-1.232.145-.149.29-.293.438-.442.515-.515.79-1.112.79-1.718 0-.606-.275-1.198-.79-1.718L7.724 2.213c-.164-.163-.328-.327-.486-.49-.313-.323-.64-.655-.963-.953C5.79.284 5.212.029 4.605.029c-.606 0-1.188.255-1.693.74l-1.78 1.776A3.698 3.698 0 0 0 .039 4.89C-.052 6.024.155 7.232.7 8.695c.832 2.256 2.088 4.35 3.95 6.587 2.261 2.704 4.985 4.836 8.093 6.337 1.184.563 2.767 1.222 4.528 1.338.11.01.221.014.327.014zM5.554 14.527c-1.771-2.132-2.964-4.12-3.749-6.246-.486-1.309-.669-2.329-.592-3.296a2.47 2.47 0 0 1 .751-1.607L3.73 1.612c.274-.265.577-.404.87-.404.29 0 .578.134.852.409.318.298.621.606.939.933.163.169.327.337.495.5l1.415 1.415c.294.294.443.592.443.88 0 .29-.15.588-.443.881-.15.15-.298.299-.443.448a29.57 29.57 0 0 1-1.332 1.299c-.395.395-.337.775-.241 1.063.005.015.01.024.014.039.366.88.876 1.718 1.665 2.714 1.43 1.756 2.926 3.123 4.581 4.171.207.13.419.241.63.342.188.096.366.183.525.284.019.01.033.02.053.029.158.077.308.115.462.115.385 0 .63-.245.712-.327l1.775-1.775c.275-.275.573-.419.862-.419.36 0 .65.221.837.419l2.863 2.863c.568.567.563 1.178-.015 1.78-.202.212-.409.414-.63.63-.332.323-.678.655-.991 1.03-.544.587-1.194.861-2.036.861-.081 0-.168-.005-.25-.01-1.559-.1-3.007-.707-4.09-1.226-2.95-1.425-5.543-3.455-7.698-6.03z"/>
</svg>
