<svg xmlns="http://www.w3.org/2000/svg" width="23" height="20" viewBox="0 0 23 20">
    <path fill="#73777A" fill-rule="nonzero" d="M22.799 2.37a8.784 8.784 0 0 1-2.687.791c.972-.624 1.71-1.611 2.062-2.793a8.94 8.94 0 0 1-2.976 1.227C18.346.613 17.13 0 15.788 0c-2.583 0-4.68 2.258-4.68 5.052 0 .39.04.78.124 1.148-3.89-.212-7.337-2.219-9.646-5.274a5.326 5.326 0 0 0-.63 2.537c0 1.75.826 3.3 2.082 4.204a4.443 4.443 0 0 1-2.124-.63v.06c0 2.449 1.612 4.49 3.756 4.952a4.334 4.334 0 0 1-2.113.09c.594 2 2.32 3.462 4.371 3.5-1.607 1.356-3.622 2.164-5.812 2.164-.377 0-.75-.022-1.116-.072C2.072 19.164 4.53 20 7.17 20c8.603 0 13.31-7.694 13.31-14.363 0-.217-.006-.435-.016-.652.92-.714 1.71-1.6 2.335-2.615z"/>
</svg>
